HIERARCHY
ROOT Hips
{
	OFFSET -0.179506 -22.333345 2.821913
	CHANNELS 6 Xposition Yposition Zposition Zrotation Yrotation Xrotation 
	JOINT LeftUpLeg
	{
		OFFSET 6.951974 -9.140623 -0.681533
		CHANNELS 3 Zrotation Yrotation Xrotation
		JOINT LeftLeg
		{
			OFFSET 3.427654 -37.519855 -0.449580
			CHANNELS 3 Zrotation Yrotation Xrotation
			JOINT LeftFoot
			{
				OFFSET -1.359570 -39.796059 -4.369333
				CHANNELS 3 Zrotation Yrotation Xrotation
				JOINT LeftToe
				{
					OFFSET 2.635814 -5.579078 11.928840
					CHANNELS 3 Zrotation Yrotation Xrotation
					End Site
					{
						OFFSET 0.000000 0.000000 0.000000
					}
				}
			}
		}
	}
	JOINT RightUpLeg
	{
		OFFSET -6.767048 -9.052170 -0.431982
		CHANNELS 3 Zrotation Yrotation Xrotation
		JOINT RightLeg
		{
			OFFSET -3.829005 -38.256897 -0.885003
			CHANNELS 3 Zrotation Yrotation Xrotation
			JOINT RightFoot
			{
				OFFSET 1.577377 -39.841461 -4.231180
				CHANNELS 3 Zrotation Yrotation Xrotation
				JOINT RightToe
				{
					OFFSET -2.537174 -4.814398 12.334795
					CHANNELS 3 Zrotation Yrotation Xrotation
					End Site
					{
						OFFSET 0.000000 0.000000 0.000000
					}
				}
			}
		}
	}
	JOINT Spine
	{
		OFFSET -0.253288 10.896323 -2.669631
		CHANNELS 3 Zrotation Yrotation Xrotation
		JOINT Spine1
		{
			OFFSET 0.548704 13.518043 0.109247
			CHANNELS 3 Zrotation Yrotation Xrotation
			JOINT Spine2
			{
				OFFSET 0.145701 5.292222 2.542457
				CHANNELS 3 Zrotation Yrotation Xrotation
				JOINT Neck
				{
					OFFSET -0.277840 21.387037 -4.285703
					CHANNELS 3 Zrotation Yrotation Xrotation
					JOINT Head
					{
						OFFSET 0.515184 6.496960 5.134897
						CHANNELS 3 Zrotation Yrotation Xrotation
						End Site
						{
							OFFSET 0.000000 0.000000 0.000000
						}
					}
				}
				JOINT LeftShoulder
				{
					OFFSET 7.884473 12.174932 -3.408961
					CHANNELS 3 Zrotation Yrotation Xrotation
					JOINT LeftArm
					{
						OFFSET 9.097692 3.046888 -0.886815
						CHANNELS 3 Zrotation Yrotation Xrotation
						JOINT LeftForeArm
						{
							OFFSET 25.961220 -1.277207 -2.745643
							CHANNELS 3 Zrotation Yrotation Xrotation
							JOINT LeftHand
							{
								OFFSET 24.923361 0.898606 -0.117091
								CHANNELS 3 Zrotation Yrotation Xrotation
								End Site
								{
									OFFSET 0.000000 0.000000 0.000000
								}
							}
						}
					}
				}
				JOINT RightShoulder
				{
					OFFSET -8.175920 11.883285 -3.861528
					CHANNELS 3 Zrotation Yrotation Xrotation
					JOINT RightArm
					{
						OFFSET -9.601238 3.255117 -0.914307
						CHANNELS 3 Zrotation Yrotation Xrotation
						JOINT RightForeArm
						{
							OFFSET -25.374195 -1.332924 -2.140099
							CHANNELS 3 Zrotation Yrotation Xrotation
							JOINT RightHand
							{
								OFFSET -25.529810 0.777228 -0.555919
								CHANNELS 3 Zrotation Yrotation Xrotation
								End Site
								{
									OFFSET 0.000000 0.000000 0.000000
								}
							}
						}
					}
				}
			}
		}
	}
}
MOTION
Frames: 6
Frame Time: 0.033333
-5.904522 116.676506 89.842270 -143.335415 0.558062 87.991950 10.676889 3.570361 -4.628795 -2.889103 2.111552 20.766615 3.071744 10.860861 -24.507729 nan nan nan -14.617188 -10.329120 -12.375603 1.593021 -14.754318 12.915204 6.447208 -4.250670 -2.913736 nan nan nan -4.382632 3.198977 0.731778 6.301250 -3.139933 11.719229 0.385343 1.023238 -4.823035 5.405405 -11.245418 19.113789 2.959900 -14.036377 14.471111 -14.767896 -1.702855 3.083507 -55.648767 -32.921000 14.953527 144.066906 -45.653159 -112.407190 7.983821 -17.694823 -6.979102 18.624256 5.549089 0.740820 47.564092 19.134625 -2.484588 -127.562615 44.411756 -105.487549 -3.743452 13.162995 -10.176523 
-5.936173 116.684715 89.866928 -143.294906 0.590915 88.066498 10.683288 3.511684 -4.663987 -2.887783 2.135007 20.769770 3.079673 10.813951 -24.507772 nan nan nan -14.562465 -10.301498 -12.359462 1.464554 -14.860342 12.885787 6.472654 -4.344002 -2.875309 nan nan nan -4.352245 3.137941 0.653469 6.272377 -3.136563 11.629619 0.349528 1.004842 -4.702868 5.495009 -11.339900 19.048877 2.879284 -14.060806 14.414176 -14.655517 -1.476225 3.058854 -56.407345 -32.713414 15.278583 144.385037 -45.373186 -112.465884 8.049272 -17.617183 -7.168601 18.406582 5.361300 0.741441 47.951009 19.193308 -2.246814 -127.834184 44.402606 -105.327223 -3.914993 13.098458 -10.253772 
-5.937930 116.680351 89.889145 -143.332834 0.619470 88.158662 10.722188 3.474503 -4.734289 -2.875367 2.268174 20.798127 3.080704 10.749712 -24.499308 nan nan nan -14.492744 -10.214555 -12.461038 1.435183 -14.905384 12.882105 6.494204 -4.275973 -2.836439 nan nan nan -4.334469 3.082341 0.629028 6.259040 -3.086513 11.513749 0.304332 1.023307 -4.631105 5.553698 -11.355256 19.029826 2.830143 -14.115998 14.342905 -14.499834 -1.160518 3.059491 -57.247007 -32.552763 15.671678 144.734851 -45.082458 -112.565308 7.915881 -17.595164 -7.426743 18.265581 5.145083 0.795617 48.351799 19.376910 -2.010878 -128.062763 44.361786 -105.168138 -3.871043 13.064448 -10.292889 
-5.998607 116.743607 89.973267 -142.834670 0.758868 88.532798 10.830174 3.303157 -5.198124 -2.988133 1.967949 20.898522 2.947632 10.704773 -24.574326 nan nan nan -14.420535 -10.457321 -12.421354 1.689408 -15.014822 12.600195 7.057506 -4.656752 -3.141268 nan nan nan -5.012058 3.389850 -0.407639 7.116278 -3.241446 11.845284 0.519019 1.380856 -4.646153 4.774062 -12.565065 19.203940 3.451671 -14.121109 15.016944 -14.515821 -2.511924 4.431322 -66.581895 -32.563059 27.045993 162.232909 -64.539528 -121.152896 -0.746362 -16.286062 2.483482 18.150154 3.572930 0.292691 48.246613 19.229214 -2.460605 -128.424676 44.698676 -105.812831 -1.424121 12.974762 -10.417844 
-6.000523 116.739487 90.018280 -142.869903 0.805717 88.593323 10.868466 3.361386 -5.255264 -3.005019 2.022639 20.981668 2.936833 10.689446 -24.691216 nan nan nan -14.355171 -10.459063 -12.518277 1.666381 -15.069990 12.688268 7.081641 -4.650672 -3.189008 nan nan nan -5.013283 3.376469 -0.478903 7.175852 -3.214545 11.769128 0.536471 1.355349 -4.565772 4.824924 -12.648781 19.265840 3.459686 -14.144732 14.873318 -14.507672 -2.270743 4.437940 -66.982174 -32.395427 27.224074 163.061059 -64.634757 -121.555152 -0.690522 -16.067577 2.880292 18.096555 3.401439 0.321080 48.383271 19.308413 -2.383780 -128.651846 44.748667 -105.954171 -1.670351 12.988643 -10.710677 
-6.183806 116.786209 89.964005 -142.554962 0.365416 89.468936 10.159391 2.979112 -6.088860 -2.773512 2.384847 20.758135 2.229598 9.893149 -24.262073 nan nan nan -15.141350 -10.657328 -13.051136 1.950443 -16.168614 12.536339 7.050597 -3.762631 -3.312816 nan nan nan -6.109694 3.979155 -1.861480 7.416885 -3.307821 11.171412 1.368278 1.326372 -3.876233 4.236951 -13.122432 20.880545 5.114605 -14.724088 12.558039 -14.148223 -3.253502 4.693521 -69.152998 -32.252944 27.927417 152.998017 -65.010440 -119.965335 -6.785335 -23.560012 -8.344887 16.842352 3.418571 -0.467411 49.257712 17.371371 -3.734067 -129.464981 44.682336 -108.969329 1.960903 14.887690 -9.917792 
